<svg xmlns="http://www.w3.org/2000/svg" width="24" height="24" viewBox="0 0 24 24">
  <path fill="#000000" fill-rule="evenodd" d="M16.0443657,11.4928427 C16.1845577,11.6330347 16.2660824,11.8280844 16.2660824,12.0269437 C16.2660824,12.2277078 16.1845577,12.4227575 16.0443657,12.5629495 C15.9043642,12.7050462 15.7072192,12.7844757 15.5085504,12.7844757 C15.3096911,12.7844757 15.1146414,12.7050462 14.9725447,12.5629495 C14.8323527,12.4227575 14.7510185,12.2277078 14.7510185,12.0269437 C14.7510185,11.8280844 14.8323527,11.6330347 14.9725447,11.4928427 C15.1146414,11.3507459 15.3096911,11.2694117 15.5085504,11.2694117 C15.7072192,11.2694117 15.9043642,11.3507459 16.0443657,11.4928427 M17.4399998,10.0393032 C17.3956184,10.3724497 17.1110439,10.614738 16.7838023,10.614738 C16.7546591,10.614738 16.725135,10.6128332 16.6954204,10.6088332 C16.3325593,10.5604517 16.0776994,10.2271148 16.1260809,9.86406322 C16.2582728,8.87205253 15.1525466,8.35357075 15.105308,8.33204671 C14.7738758,8.18023555 14.6254933,7.7884218 14.7752092,7.45603726 C14.9249251,7.12365273 15.3129293,6.9741273 15.6462662,7.12155747 C15.7304576,7.1588912 17.7041932,8.05832947 17.4399998,10.0393032 M14.483968,14.4248743 C12.0673705,14.4248743 10.101635,12.4263766 10.101635,9.96996913 C10.101635,7.51375217 12.0673705,5.51525443 14.483968,5.51525443 C16.9001845,5.51525443 18.8661104,7.51375217 18.8661104,9.96996913 C18.8661104,12.4263766 16.9001845,14.4248743 14.483968,14.4248743 M14.483968,4 C11.2321234,4 8.58657104,6.67812411 8.58657104,9.96996913 C8.58657104,11.3532221 9.05476656,12.6269502 9.83763215,13.6402944 L4.24538138,19.3114032 C3.91490162,19.6466449 3.91871119,20.1862698 4.2539529,20.5167495 C4.41985945,20.6805608 4.63605225,20.7620855 4.85224506,20.7620855 C5.07224743,20.7620855 5.29224981,20.6775131 5.45910875,20.5083685 L11.0610739,14.8271644 C12.0269891,15.5266005 13.2083352,15.9401287 14.483968,15.9401287 C17.7358125,15.9401287 20.3811744,13.2620046 20.3811744,9.96996913 C20.3811744,6.67812411 17.7358125,4 14.483968,4"/>
</svg>
