<svg xmlns="http://www.w3.org/2000/svg" width="24" height="24" viewBox="0 0 24 24">
  <path fill="#000000" fill-rule="evenodd" d="M12.3810417,15.4254565 C12.5252337,15.4254565 12.6692353,15.4662189 12.7953319,15.547934 L15.8075548,17.4995741 L14.8785924,14.2075386 C14.7974487,13.920107 14.8919259,13.6117227 15.1201189,13.4187682 L18.0795793,10.917027 L14.6806855,10.6724529 C14.4029683,10.6524527 14.1582037,10.4825461 14.0423929,10.2294005 L12.3810417,6.59450416 L10.7196905,10.2294005 C10.6038797,10.4825461 10.3591151,10.6524527 10.0813979,10.6724529 L6.68250407,10.917027 L9.64196455,13.4187682 C9.87015749,13.6117227 9.9646347,13.920107 9.88349097,14.2075386 L8.95452857,17.4995741 L11.9667515,15.547934 C12.0928481,15.4662189 12.2368497,15.4254565 12.3810417,15.4254565 M17.0896639,20.0001725 C16.9458528,20.0001725 16.8018513,19.9594102 16.6755642,19.877695 L12.3810417,17.0951888 L8.08651921,19.877695 C7.82023063,20.0500778 7.47527452,20.039411 7.22003368,19.851409 C6.96479283,19.6632165 6.8529821,19.3365463 6.93907827,19.0312097 L8.28366419,14.265825 L4.27009711,10.873217 C4.03352313,10.6732148 3.94152214,10.3499732 4.03752317,10.0553034 C4.13352421,9.76082402 4.39828897,9.55358369 4.70724468,9.53148821 L9.52139182,9.18500828 L11.6880819,4.44514766 C11.8120832,4.17390664 12.0829433,4 12.3810417,4 C12.6791402,4 12.9500002,4.17390664 13.0740016,4.44514766 L15.2406916,9.18500828 L20.0548387,9.53148821 C20.3637944,9.55358369 20.6285592,9.76082402 20.7245602,10.0553034 C20.8205613,10.3499732 20.7285603,10.6732148 20.4919863,10.873217 L16.4784192,14.265825 L17.8230051,19.0312097 C17.9091013,19.3365463 17.7972906,19.6632165 17.5420497,19.851409 C17.407953,19.9502672 17.2490942,20.0001725 17.0896639,20.0001725"/>
</svg>
