<svg xmlns="http://www.w3.org/2000/svg" width="24" height="17" viewBox="0 0 24 17"><path fill-rule="evenodd" d="M9.517 11.547l-.001-6.74 6.481 3.382-6.48 3.358zm14.23-7.907s-.234-1.653-.953-2.381C21.882.303 20.859.299 20.39.243 17.034 0 11.999 0 11.999 0h-.01S6.952 0 3.596.243c-.47.056-1.491.06-2.404 1.016-.72.728-.953 2.38-.953 2.38S0 5.582 0 7.523v1.82c0 1.94.24 3.882.24 3.882s.234 1.653.953 2.38c.913.956 2.111.926 2.645 1.026 1.919.184 8.156.241 8.156.241s5.04-.008 8.397-.25c.468-.056 1.49-.06 2.403-1.016.72-.728.954-2.381.954-2.381s.24-1.941.24-3.882v-1.82c0-1.941-.24-3.882-.24-3.882z"/></svg>