<svg xmlns="http://www.w3.org/2000/svg" width="24" height="24" viewBox="0 0 24 24">
  <path fill="#000000" fill-rule="evenodd" d="M16.6537708,15.4415672 C16.988441,15.7762375 16.988441,16.3191005 16.6537708,16.6537708 C16.4863404,16.8212011 16.2670999,16.9048211 16.047669,16.9048211 C15.828238,16.9048211 15.6089976,16.8212011 15.4415672,16.6537708 L11.9523867,13.1645903 L8.46320625,16.6537708 C8.29577588,16.8212011 8.07653542,16.9048211 7.85710448,16.9048211 C7.63767354,16.9048211 7.41843308,16.8212011 7.25100271,16.6537708 C6.91633243,16.3191005 6.91633243,15.7762375 7.25100271,15.4415672 L10.7401832,11.9523867 L7.25100271,8.46320625 C6.91633243,8.12853598 6.91633243,7.58567298 7.25100271,7.25100271 C7.58586346,6.91633243 8.1283455,6.91633243 8.46320625,7.25100271 L11.9523867,10.7401832 L15.4415672,7.25100271 C15.776428,6.91633243 16.31891,6.91633243 16.6537708,7.25100271 C16.988441,7.58567298 16.988441,8.12853598 16.6537708,8.46320625 L13.1645903,11.9523867 L16.6537708,15.4415672 Z"/>
</svg>
