<svg xmlns="http://www.w3.org/2000/svg" width="24" height="24" viewBox="0 0 24 24">
  <path fill="#000000" fill-rule="evenodd" d="M18.0945986,19.7620379 L18.0945986,12.3170052 C18.0945986,11.8962388 17.7534521,11.5550922 17.3326856,11.5550922 C16.9119192,11.5550922 16.5707726,11.8962388 16.5707726,12.3170052 L16.5707726,19.0001249 L14.1899851,19.0001249 L14.1899851,14.9263667 C14.1899851,14.3688369 13.7364564,13.9153082 13.1789265,13.9153082 L10.3448008,13.9153082 C9.78746141,13.9153082 9.33374223,14.3688369 9.33374223,14.9263667 L9.33374223,19.0001249 L6.95333561,19.0001249 L6.95333561,12.3170052 C6.95333561,11.8962388 6.61218908,11.5550922 6.19142264,11.5550922 C5.7706562,11.5550922 5.42950966,11.8962388 5.42950966,12.3170052 L5.42950966,19.7620379 C5.42950966,20.1828043 5.7706562,20.5239508 6.19142264,20.5239508 L10.0956552,20.5239508 C10.5164216,20.5239508 10.8575682,20.1828043 10.8575682,19.7620379 L10.8575682,15.4391341 L12.6661591,15.4391341 L12.6661591,19.7620379 C12.6661591,20.1828043 13.0073056,20.5239508 13.4280721,20.5239508 L17.3326856,20.5239508 C17.7534521,20.5239508 18.0945986,20.1828043 18.0945986,19.7620379 M19.7620451,12.3351006 C19.5702336,12.3351006 19.378041,12.2630999 19.2298489,12.1183364 L11.7621494,4.82663874 L4.29425933,12.1183364 C3.99311322,12.4126253 3.51063183,12.40653 3.2167239,12.1055744 C2.92281597,11.8044283 2.92853032,11.3219469 3.22967642,11.0280389 L11.2297627,3.21671662 C11.5257659,2.92776113 11.9985329,2.92776113 12.2943456,3.21671662 L20.2944318,11.0280389 C20.5953875,11.3219469 20.6012923,11.8044283 20.3071939,12.1055744 C20.1580494,12.2583379 19.9601425,12.3351006 19.7620451,12.3351006"/>
</svg>
