<svg xmlns="http://www.w3.org/2000/svg" width="24" height="24" viewBox="0 0 24 24">
  <path fill="#000000" fill-rule="evenodd" d="M19.253868,12.061947 L14.5046739,16.8239031 C14.3559104,16.9730476 14.1604797,17.047715 13.9652395,17.047715 C13.7705708,17.047715 13.575902,16.973619 13.4271385,16.8252365 C13.1292305,16.5280904 13.1286591,16.0457995 13.4258051,15.7478915 L16.8784138,12.2857589 L5.76191298,12.2857589 C5.34114654,12.2857589 5,11.9446124 5,11.523846 C5,11.1030795 5.34114654,10.761933 5.76191298,10.761933 L16.8784138,10.761933 L13.4258051,7.2999909 C13.1286591,7.00208292 13.1292305,6.51960153 13.4271385,6.22245547 C13.7250465,5.92530941 14.2075278,5.92588084 14.5046739,6.2239793 L19.253868,10.9859354 C19.5504426,11.2832719 19.5504426,11.76442 19.253868,12.061947"/>
</svg>
