<svg xmlns="http://www.w3.org/2000/svg" width="24" height="24" viewBox="0 0 24 24">
  <path fill="#000000" fill-rule="evenodd" d="M4.52382595,15.7619992 L4.52382595,9.27659597 L11.3077086,14.3139836 C11.4425672,14.4141752 11.602188,14.464271 11.7619992,14.464271 C11.92162,14.464271 12.0812408,14.4141752 12.2160994,14.3139836 L19.0001725,9.27659597 L19.0001725,15.7619992 L4.52382595,15.7619992 Z M17.4580606,8.52382595 L11.7619992,12.7533954 L6.06593782,8.52382595 L17.4580606,8.52382595 Z M20.5222842,7.74553185 C20.5217127,7.71715059 20.5175222,7.68895981 20.5139031,7.66076903 C20.5108555,7.63886403 20.5093316,7.61676855 20.5045697,7.59543499 C20.4990458,7.57124425 20.4902838,7.54781543 20.4822837,7.52400565 C20.4744741,7.50000539 20.4676169,7.47581465 20.4573311,7.45276679 C20.4485691,7.43314753 20.4367594,7.41448066 20.4260926,7.39524236 C20.4121877,7.37028971 20.3988543,7.34514658 20.3822826,7.32190823 C20.3790445,7.31733675 20.3771397,7.31219384 20.3737111,7.30762236 C20.3634253,7.29371745 20.3506633,7.28305067 20.339425,7.26990767 C20.3217106,7.24933602 20.304377,7.22857389 20.2845673,7.20971655 C20.2662814,7.19238303 20.2468526,7.1777162 20.2272334,7.16247794 C20.2079951,7.14743016 20.1891377,7.13257286 20.1683756,7.11942986 C20.147042,7.1059059 20.1245656,7.09466769 20.1020892,7.08342947 C20.0805651,7.07257221 20.0592315,7.06171495 20.0365646,7.05295295 C20.0127549,7.04381 19.9883736,7.03714326 19.9636115,7.03028604 C19.9407541,7.02400026 19.9184681,7.017524 19.8948488,7.01333348 C19.8668485,7.00838104 19.8388482,7.00666674 19.810467,7.00495243 C19.7940858,7.00380956 19.7786571,7 19.7620855,7 L3.76191298,7 C3.74515089,7 3.7293412,7.00380956 3.71276959,7.00495243 C3.68476929,7.00685722 3.65695946,7.00857152 3.62934012,7.01333348 C3.60553034,7.017524 3.58286343,7.02419074 3.56000604,7.03047652 C3.53543434,7.03733374 3.51124361,7.04381 3.48762431,7.05295295 C3.46476692,7.06171495 3.44343335,7.07257221 3.42190931,7.08342947 C3.3992424,7.09485817 3.37695645,7.1059059 3.35562288,7.11942986 C3.33486075,7.13257286 3.31600341,7.14743016 3.2967651,7.16247794 C3.27714585,7.1777162 3.25771706,7.19238303 3.23943115,7.20971655 C3.21962142,7.22857389 3.2022879,7.24933602 3.18457342,7.26990767 C3.17352568,7.28305067 3.16057316,7.29371745 3.15028733,7.30762236 C3.14685873,7.31219384 3.14495394,7.31733675 3.14171581,7.32190823 C3.12514421,7.34514658 3.11181073,7.37009923 3.09790582,7.39524236 C3.08723904,7.41448066 3.07542938,7.43314753 3.06666739,7.45295726 C3.05657204,7.47581465 3.04971482,7.50000539 3.04171474,7.52381517 C3.03390513,7.54762495 3.02495265,7.57124425 3.01942878,7.59543499 C3.01466682,7.61676855 3.013143,7.63886403 3.01028583,7.66076903 C3.00647626,7.68895981 3.00228574,7.71715059 3.0017143,7.74553185 C3.00152383,7.75105572 3,7.75619863 3,7.76191298 L3,16.5239122 C3,16.9446786 3.34114654,17.2858252 3.76191298,17.2858252 L19.7620855,17.2858252 C20.1828519,17.2858252 20.5239985,16.9446786 20.5239985,16.5239122 L20.5239985,7.76191298 C20.5239985,7.75619863 20.5224746,7.75105572 20.5222842,7.74553185 L20.5222842,7.74553185 Z"/>
</svg>
