<svg xmlns="http://www.w3.org/2000/svg" width="24" height="24" viewBox="0 0 24 24">
  <path fill="#000000" fill-rule="evenodd" d="M5.28573893,8.50920226 C5.70650537,8.50920226 6.04765191,8.16805572 6.04765191,7.74728928 L6.04765191,3.76191298 C6.04765191,3.34114654 5.70650537,3 5.28573893,3 C4.86497249,3 4.52382595,3.34114654 4.52382595,3.76191298 L4.52382595,7.74728928 C4.52382595,8.16805572 4.86497249,8.50920226 5.28573893,8.50920226 M5.28573893,15.0528919 C4.86497249,15.0528919 4.52382595,15.3942289 4.52382595,15.8148048 L4.52382595,19.7620855 C4.52382595,20.1828519 4.86497249,20.5239985 5.28573893,20.5239985 C5.70650537,20.5239985 6.04765191,20.1828519 6.04765191,19.7620855 L6.04765191,15.8148048 C6.04765191,15.3942289 5.70650537,15.0528919 5.28573893,15.0528919 M11.7619992,12.2774334 C12.1827657,12.2774334 12.5239122,11.9362868 12.5239122,11.5155204 L12.5239122,3.76191298 C12.5239122,3.34114654 12.1827657,3 11.7619992,3 C11.3412328,3 11.0000863,3.34114654 11.0000863,3.76191298 L11.0000863,11.5155204 C11.0000863,11.9362868 11.3412328,12.2774334 11.7619992,12.2774334 M11.7619992,18.5620725 C11.3412328,18.5620725 11.0000863,18.9032191 11.0000863,19.3239855 L11.0000863,19.7620855 C11.0000863,20.1828519 11.3412328,20.5239985 11.7619992,20.5239985 C12.1827657,20.5239985 12.5239122,20.1828519 12.5239122,19.7620855 L12.5239122,19.3239855 C12.5239122,18.9032191 12.1827657,18.5620725 11.7619992,18.5620725 M19.0001725,8.45377309 C19.0001725,8.02995899 18.6639784,7.68519337 18.2506406,7.68519337 C17.8373028,7.68519337 17.5011087,8.02995899 17.5011087,8.45377309 C17.5011087,8.87758718 17.8373028,9.2223528 18.2506406,9.2223528 C18.6639784,9.2223528 19.0001725,8.87758718 19.0001725,8.45377309 M20.5239985,8.45377309 C20.5239985,9.71778672 19.5041779,10.7461788 18.2506406,10.7461788 C16.9971033,10.7461788 15.9772828,9.71778672 15.9772828,8.45377309 C15.9772828,7.18975946 16.9971033,6.16136742 18.2506406,6.16136742 C19.5041779,6.16136742 20.5239985,7.18975946 20.5239985,8.45377309 M12.5115311,15.5094682 C12.5115311,15.0856541 12.175337,14.7408885 11.7619992,14.7408885 C11.3486614,14.7408885 11.0124673,15.0856541 11.0124673,15.5094682 C11.0124673,15.9332823 11.3486614,16.2780479 11.7619992,16.2780479 C12.175337,16.2780479 12.5115311,15.9332823 12.5115311,15.5094682 M14.0353571,15.5094682 C14.0353571,16.7734818 13.0155366,17.8018739 11.7619992,17.8018739 C10.5084619,17.8018739 9.48864139,16.7734818 9.48864139,15.5094682 C9.48864139,14.2454546 10.5084619,13.2170625 11.7619992,13.2170625 C13.0155366,13.2170625 14.0353571,14.2454546 14.0353571,15.5094682 M6.02288973,11.7619992 C6.02288973,11.3383756 5.68669563,10.9934195 5.27335784,10.9934195 C4.86002005,10.9934195 4.52382595,11.3383756 4.52382595,11.7619992 C4.52382595,12.1858133 4.86002005,12.5305789 5.27335784,12.5305789 C5.68669563,12.5305789 6.02288973,12.1858133 6.02288973,11.7619992 M7.54671569,11.7619992 C7.54671569,13.0260129 6.52689517,14.0544049 5.27335784,14.0544049 C4.01982052,14.0544049 3,13.0260129 3,11.7619992 C3,10.4979856 4.01982052,9.46959356 5.27335784,9.46959356 C6.52689517,9.46959356 7.54671569,10.4979856 7.54671569,11.7619992 M18.2382595,5.17583298 C18.659026,5.17583298 19.0001725,4.83468645 19.0001725,4.41392001 L19.0001725,3.76191298 C19.0001725,3.34114654 18.659026,3 18.2382595,3 C17.8174931,3 17.4763466,3.34114654 17.4763466,3.76191298 L17.4763466,4.41392001 C17.4763466,4.83468645 17.8174931,5.17583298 18.2382595,5.17583298 M19.0001725,12.3042908 L19.0001725,19.7620855 C19.0001725,20.1828519 18.659026,20.5239985 18.2382595,20.5239985 C17.8174931,20.5239985 17.4763466,20.1828519 17.4763466,19.7620855 L17.4763466,12.3042908 C17.4763466,11.8835244 17.8174931,11.5423778 18.2382595,11.5423778 C18.659026,11.5423778 19.0001725,11.8835244 19.0001725,12.3042908"/>
</svg>
