<svg xmlns="http://www.w3.org/2000/svg" width="24" height="24" viewBox="0 0 24 24">
  <path fill="#000000" fill-rule="evenodd" d="M19.4762989,11.5238697 C19.4762989,11.9446361 19.1351524,12.2857826 18.714386,12.2857826 L7.59788515,12.2857826 L11.0504938,15.7477247 C11.3476399,16.0458232 11.3470684,16.5281141 11.0491605,16.8252601 C10.9003969,16.9736427 10.7057282,17.0477387 10.5110594,17.0477387 C10.3158192,17.0477387 10.1203885,16.9730713 9.97162503,16.8239268 L5.22243097,12.0619707 C4.92585634,11.7644437 4.92585634,11.2832956 5.22243097,10.9857686 L9.97162503,6.22381251 C10.2687711,5.92590453 10.751062,5.9253331 11.0491605,6.22247916 C11.3470684,6.51962522 11.3476399,7.00191614 11.0504938,7.30001459 L7.59788515,10.7619567 L18.714386,10.7619567 C19.1351524,10.7619567 19.4762989,11.1031032 19.4762989,11.5238697"/>
</svg>
