<svg xmlns="http://www.w3.org/2000/svg" width="24" height="24" viewBox="0 0 24 24">
  <path fill="#000000" fill-rule="evenodd" d="M19.6668248,17.2858467 C19.6668248,16.6020299 19.1125331,16.0477382 18.4287162,16.0477382 L6.23810859,16.0477382 C5.55429169,16.0477382 5,16.6020299 5,17.2858467 C5,17.9696636 5.55429169,18.5239553 6.23810859,18.5239553 L18.4287162,18.5239553 C19.1125331,18.5239553 19.6668248,17.9696636 19.6668248,17.2858467 M19.6668248,11.7617872 C19.6668248,11.0779703 19.1125331,10.5236786 18.4287162,10.5236786 L6.23810859,10.5236786 C5.55429169,10.5236786 5,11.0779703 5,11.7617872 C5,12.4456041 5.55429169,12.9998958 6.23810859,12.9998958 L18.4287162,12.9998958 C19.1125331,12.9998958 19.6668248,12.4456041 19.6668248,11.7617872 M18.4287162,7.47621717 L6.23810859,7.47621717 C5.55429169,7.47621717 5,6.92192548 5,6.23810859 C5,5.55429169 5.55429169,5 6.23810859,5 L18.4287162,5 C19.1125331,5 19.6668248,5.55429169 19.6668248,6.23810859 C19.6668248,6.92192548 19.1125331,7.47621717 18.4287162,7.47621717"/>
</svg>
