<svg xmlns="http://www.w3.org/2000/svg" width="20" height="20" viewBox="0 0 20 20">
  <path fill="#000000" d="M19.5090909,1.81818182 C18.8090909,2.13636364 18.0545455,2.34545455 17.2727273,2.44545455 C18.0727273,1.96363636 18.6909091,1.2 18.9818182,0.281818182 C18.2272727,0.736363636 17.3909091,1.05454545 16.5090909,1.23636364 C15.7909091,0.454545455 14.7818182,0 13.6363636,0 C11.5,0 9.75454545,1.74545455 9.75454545,3.9 C9.75454545,4.20909091 9.79090909,4.50909091 9.85454545,4.79090909 C6.61818182,4.62727273 3.73636364,3.07272727 1.81818182,0.718181818 C1.48181818,1.29090909 1.29090909,1.96363636 1.29090909,2.67272727 C1.29090909,4.02727273 1.97272727,5.22727273 3.02727273,5.90909091 C2.38181818,5.90909091 1.78181818,5.72727273 1.25454545,5.45454545 C1.25454545,5.45454545 1.25454545,5.45454545 1.25454545,5.48181818 C1.25454545,7.37272727 2.6,8.95454545 4.38181818,9.30909091 C4.05454545,9.4 3.70909091,9.44545455 3.35454545,9.44545455 C3.10909091,9.44545455 2.86363636,9.41818182 2.62727273,9.37272727 C3.11818182,10.9090909 4.54545455,12.0545455 6.26363636,12.0818182 C4.93636364,13.1363636 3.25454545,13.7545455 1.41818182,13.7545455 C1.10909091,13.7545455 0.8,13.7363636 0.490909091,13.7 C2.21818182,14.8090909 4.27272727,15.4545455 6.47272727,15.4545455 C13.6363636,15.4545455 17.5727273,9.50909091 17.5727273,4.35454545 C17.5727273,4.18181818 17.5727273,4.01818182 17.5636364,3.84545455 C18.3272727,3.3 18.9818182,2.60909091 19.5090909,1.81818182 Z" transform="translate(0 2)"/>
</svg>
