<svg xmlns="http://www.w3.org/2000/svg" width="20" height="20" viewBox="0 0 20 20"><path d="M5.8 0h8.4C17.4 0 20 2.6 20 5.8v8.4c0 3.203-2.597 5.8-5.8 5.8H5.8C2.6 20 0 17.4 0 14.2V5.8C0 2.597 2.597 0 5.8 0zm-.2 2C3.612 2 2 3.612 2 5.6v8.8C2 16.39 3.61 18 5.6 18h8.8c1.988 0 3.6-1.612 3.6-3.6V5.6C18 3.61 16.39 2 14.4 2H5.6zm9.65 1.5c.69 0 1.25.56 1.25 1.25S15.94 6 15.25 6 14 5.44 14 4.75s.56-1.25 1.25-1.25zM10 5c2.761 0 5 2.239 5 5s-2.239 5-5 5-5-2.239-5-5 2.239-5 5-5zm0 2c-1.657 0-3 1.343-3 3s1.343 3 3 3 3-1.343 3-3-1.343-3-3-3z"/></svg>