<svg xmlns="http://www.w3.org/2000/svg" width="24" height="24" viewBox="0 0 24 24">
  <path fill="#000000" fill-rule="evenodd" d="M10.8066245,5.94063491 L10.8066245,13.3816675 C10.8066245,13.802434 10.4664303,14.1435805 10.0447115,14.1435805 C9.62299267,14.1435805 9.28279853,13.802434 9.28279853,13.3816675 L9.28279853,5.94063491 L7.00353586,8.17742093 C6.70619932,8.47570986 6.19819384,8.47704321 5.89895252,8.1802781 C5.59990168,7.883513 5.58637772,7.40103161 5.88390474,7.10274268 L9.41289517,3.55699016 C9.55632528,3.41317909 9.74813688,3.33241631 9.95137716,3.33241631 C10.1546174,3.33241631 10.3479529,3.41317909 10.4911925,3.55699016 L14.0257068,7.10274268 C14.1738989,7.25131571 14.247614,7.44579399 14.247614,7.6400818 C14.247614,7.83570296 14.1721846,8.03132412 14.0222782,8.1802781 C13.7232274,8.47704321 13.2870322,8.47570986 12.9895052,8.17742093 L10.8066245,5.94063491 Z M13.5681781,20.8564148 C13.3649378,20.8564148 13.1716024,20.7754615 13.0283627,20.6316504 L9.49308651,17.0858979 C9.19555949,16.787609 9.19708332,16.3053181 9.49594368,16.0083625 C9.79499452,15.7115974 10.2311897,15.7129307 10.5287167,16.0114102 L12.7114069,18.2480057 L12.7114069,10.8069731 C12.7114069,10.3862066 13.0516011,10.0450601 13.4733199,10.0450601 C13.8950387,10.0450601 14.2352329,10.3862066 14.2352329,10.8069731 L14.2352329,18.2480057 L16.5143051,16.0114102 C16.8118321,15.7129307 17.3198376,15.7115974 17.6188884,16.0083625 C17.7689853,16.1573165 17.8564148,16.3529376 17.8564148,16.5485588 C17.8564148,16.7428466 17.788414,16.9373249 17.640222,17.0858979 L14.1081839,20.6316504 C13.9647538,20.7754615 13.7714184,20.8564148 13.5681781,20.8564148 Z"/>
</svg>
