<svg xmlns="http://www.w3.org/2000/svg" width="20" height="20" viewBox="0 0 20 20"><path d="M2.222 0h15.556C19.005 0 20 .995 20 2.222v15.556C20 19.005 19.005 20 17.778 20H2.222C.995 20 0 19.005 0 17.778V2.222C0 .995.995 0 2.222 0zm14.122 7.033c.534-.444 1.156-.977 1.434-1.566-.456.233-1 .377-1.6.455.555-.4 1.01-.922 1.244-1.633-.578.311-1.166.578-1.9.711-1.722-2.078-5.844-.389-5.11 2.722-2.9-.178-4.668-1.489-6.134-3.1-.834 1.356-.111 3.411.878 3.978-.512-.033-.9-.189-1.267-.367.044 1.711.989 2.534 2.311 2.978-.4.078-.844.1-1.267.033.411 1.19 1.267 1.934 2.734 2.09-1 .844-2.845 1.433-4.334 1.2 1.278.81 2.734 1.455 4.756 1.366 4.9-.222 8.178-3.733 8.255-8.867z"/></svg>