<svg xmlns="http://www.w3.org/2000/svg" width="24" height="24" viewBox="0 0 24 24">
  <path fill="#000000" fill-rule="evenodd" d="M16.7749405,11.1219708 C16.9177991,11.2648295 16.9978,11.461022 16.9978,11.6610242 C16.9978,11.8610264 16.9177991,12.0591237 16.7749405,12.2000776 C16.6339866,12.3429363 16.437794,12.4229372 16.235887,12.4229372 C16.0358849,12.4229372 15.8396923,12.3429363 15.6989289,12.2000776 C15.5560702,12.0591237 15.4739741,11.8629311 15.4739741,11.6610242 C15.4739741,11.461022 15.5560702,11.2648295 15.6989289,11.1219708 C15.8396923,10.9810169 16.0358849,10.8991112 16.235887,10.8991112 C16.437794,10.8991112 16.6339866,10.9810169 16.7749405,11.1219708 M17.6947599,10.0151017 C17.7191411,10.3825342 17.4410429,10.7000615 17.0736103,10.7242522 C17.058753,10.7252046 17.0438957,10.725776 17.0290384,10.725776 C16.6808442,10.725776 16.3876982,10.4554874 16.3644598,10.1029122 C16.2930305,9.02251956 15.5869277,8.84518431 15.4459738,8.82061262 C15.0812079,8.77070732 14.8316814,8.43527513 14.8815867,8.0705093 C14.9316825,7.70555298 15.2734005,7.45240739 15.6381663,7.5013603 C16.2979829,7.59183747 17.5772348,8.23355867 17.6947599,10.0151017 M17.8808571,12.2212207 C15.4122591,14.9903934 13.1636634,17.1500358 12.1905101,18.0593789 C11.2179282,17.1507977 8.97123728,14.9932506 6.50016301,12.2212207 C5.50281893,11.102542 5.25462578,9.73814632 5.81939377,8.47794226 C6.34301846,7.30916775 7.4651258,6.52382595 8.61142387,6.52382595 C10.8845912,6.52382595 11.399073,8.22403476 11.451645,8.423275 C11.5358364,8.75927863 11.8375539,9.00004313 12.1846053,9.00004313 L12.191272,9.00004313 C12.537371,9.00004313 12.8411838,8.75946911 12.9291847,8.4242274 C12.9800424,8.23013006 13.4924289,6.52592121 15.7697868,6.52592121 C16.9158944,6.52592121 18.0380017,7.31012015 18.5618169,8.47889465 C19.1263944,9.73909871 18.8783917,11.102542 17.8808571,12.2212207 M19.9521176,7.85469745 C19.1751568,6.12058351 17.5334248,5 15.7697868,5 C14.0072916,5 12.8640412,5.77524645 12.1905101,6.61506503 C11.516979,5.77524645 10.3737286,5 8.61142387,5 C6.84778581,5 5.20605382,6.12058351 4.42890259,7.85469745 C3.61975101,9.6604312 3.96889763,11.671691 5.36281742,13.2353269 C8.70171056,16.9808911 11.652409,19.6363483 11.6817427,19.6626343 C11.8265062,19.7925404 12.0086034,19.857303 12.1905101,19.857303 C12.3726073,19.857303 12.554514,19.7925404 12.6992775,19.6626343 C12.7286111,19.6363483 15.6793096,16.9808911 19.0182027,13.2353269 C20.4121225,11.671691 20.7614596,9.6604312 19.9521176,7.85469745"/>
</svg>
