<svg xmlns="http://www.w3.org/2000/svg" width="20" height="20" viewBox="0 0 20 20">
  <path fill="#000000" d="M9.25,14.25 C8.25,14.25 7.29,13.82 6.6,13.1 L5.41,17.1 L5.33,17.36 L5.29,17.34 C5.04,17.75 4.61,18 4.12,18 C3.37,18 2.75,17.38 2.75,16.62 C2.75,16.56 2.76,16.5 2.77,16.44 L2.75,16.43 L2.81,16.21 L5.12,9.26 C5.12,9.26 4.87,8.5 4.87,7.42 C4.87,5.27 6.03,4.62 6.95,4.62 C7.88,4.62 8.73,4.95 8.73,6.26 C8.73,7.94 7.61,8.8 7.61,10 C7.61,10.94 8.37,11.69 9.29,11.69 C12.21,11.69 13.25,9.5 13.25,7.44 C13.25,4.71 10.89,2.5 8,2.5 C5.1,2.5 2.75,4.71 2.75,7.44 C2.75,8.28 3,9.12 3.43,9.85 C3.54,10.05 3.6,10.27 3.6,10.5 C3.6,11.1903559 3.04035594,11.75 2.35,11.75 C1.91,11.75 1.5,11.5 1.27,11.13 C0.6,10 0.25,8.73 0.25,7.44 C0.25,3.33 3.73,0 8,0 C12.27,0 15.75,3.33 15.75,7.44 C15.75,10.72 13.71,14.25 9.25,14.25 Z" transform="translate(2 1)"/>
</svg>
