<svg xmlns="http://www.w3.org/2000/svg" width="24" height="24" viewBox="0 0 24 24">
  <path fill="#000000" fill-rule="evenodd" d="M16.3810859,11.8753338 L16.3810859,19.5716072 C16.3810859,19.9923737 16.007939,20.3335202 15.5871725,20.3335202 L4.76191298,20.3335202 C4.34114654,20.3335202 4,19.9923737 4,19.5716072 L4,5.06135556 C4,4.64058912 4.34114654,4.33334771 4.76191298,4.33334771 L12.6808555,4.33334771 C13.1016219,4.33334771 13.4427685,4.67449424 13.4427685,5.09526069 C13.4427685,5.51602713 13.1016219,5.85717366 12.6808555,5.85717366 L5.52382595,5.85717366 L5.52382595,18.8096943 L14.8572599,18.8096943 L14.8572599,11.8753338 C14.8572599,11.4545673 15.1984065,11.1134208 15.6191729,11.1134208 C16.0399393,11.1134208 16.3810859,11.4545673 16.3810859,11.8753338 L16.3810859,11.8753338 Z M10.5524516,12.5585792 L9.63739411,12.9216308 L10.0038743,11.9842873 L17.4896693,4.38534827 L18.0544372,4.95773539 L10.5524516,12.5585792 Z M19.2639741,4.55639773 L17.8961498,3.17009707 C17.7887201,3.06133399 17.6422423,3 17.4892883,3 L17.4890978,3 C17.3361438,3 17.189666,3.06152447 17.0822363,3.17028755 L9.10729316,11.2658034 C9.05300686,11.3210421 9.01033973,11.3865666 8.98214895,11.4587579 L8.09471081,13.7292585 C8.01185278,13.9410703 8.06251999,14.1818348 8.22366459,14.342408 C8.3329991,14.4509806 8.47852448,14.5086955 8.62690703,14.5086955 C8.69776494,14.5086955 8.76919428,14.4955525 8.83757597,14.4685046 L11.0856002,13.5766855 C11.1591248,13.5473518 11.2259827,13.5031609 11.2816023,13.4467793 L19.2639741,5.35926353 C19.4835955,5.13659446 19.4835955,4.77887632 19.2639741,4.55639773 L19.2639741,4.55639773 Z"/>
</svg>
