<svg xmlns="http://www.w3.org/2000/svg" width="24" height="24" viewBox="0 0 24 24">
  <path fill="#000000" fill-rule="evenodd" d="M18.0110727,17.1410381 C17.630173,17.1410381 17.260346,17.2927336 16.9923875,17.5589204 C16.7244291,17.8248858 16.5716263,18.1944913 16.5716263,18.570519 C16.5716263,18.9465467 16.7244291,19.3159308 16.9923875,19.5823391 C17.260346,19.8483045 17.630173,20 18.0110727,20 C18.3897578,20 18.7595848,19.8483045 19.0275433,19.5823391 C19.2955017,19.3159308 19.450519,18.9465467 19.450519,18.570519 C19.450519,18.1944913 19.2955017,17.8248858 19.0275433,17.5589204 C18.7595848,17.2927336 18.3897578,17.1410381 18.0110727,17.1410381 M10.0631142,17.1410381 C9.68442907,17.1410381 9.31238754,17.2927336 9.04442907,17.5589204 C8.77647059,17.8248858 8.62366782,18.1944913 8.62366782,18.570519 C8.62366782,18.9465467 8.77647059,19.3159308 9.04442907,19.5823391 C9.31238754,19.8483045 9.68442907,20 10.0631142,20 C10.4417993,20 10.8116263,19.8483045 11.0795848,19.5823391 C11.3475433,19.3159308 11.5025606,18.9465467 11.5025606,18.570519 C11.5025606,18.1944913 11.3475433,17.8248858 11.0795848,17.5589204 C10.8116263,17.2927336 10.4417993,17.1410381 10.0631142,17.1410381 M22.332955,7.60282353 L19.9660623,15.0835156 C19.7995294,15.6085813 19.3154325,15.9584775 18.7611349,15.9584775 L9.61201384,15.9584775 C9.08716955,15.9584775 8.57605536,15.6333841 8.39291349,15.1448581 L4.90746021,5.7716263 L2.88581315,5.7716263 C2.39662284,5.7716263 2,5.37168166 2,4.88581315 C2,4.40016609 2.39662284,4 2.88581315,4 L5.51911419,4 C5.88716955,4 6.21979239,4.25334256 6.35022837,4.59526644 L9.96523183,14.1868512 L18.3879862,14.1868512 L20.2807474,8.20761246 L9.84121799,8.20761246 C9.35202768,8.20761246 8.95540484,7.80766782 8.95540484,7.32179931 C8.95540484,6.83615225 9.35202768,6.43598616 9.84121799,6.43598616 L21.4878893,6.43598616 C21.7700208,6.43598616 22.0351003,6.58591003 22.2020761,6.81179239 C22.3690519,7.03767474 22.4175502,7.33552941 22.332955,7.60282353"/>
</svg>
