<svg xmlns="http://www.w3.org/2000/svg" width="24" height="24" viewBox="0 0 24 24">
  <path fill="#000000" fill-rule="evenodd" d="M17.0953469,12.1429126 C17.0953469,12.616251 16.7115333,13.0000647 16.2381948,13.0000647 L12.8095864,13.0000647 L12.8095864,16.2381948 C12.8095864,16.7115333 12.4257728,17.0953469 11.9524343,17.0953469 C11.4790959,17.0953469 11.0952822,16.7115333 11.0952822,16.2381948 L11.0952822,13.0000647 L7.8571521,13.0000647 C7.38381366,13.0000647 7,12.616251 7,12.1429126 C7,11.6695742 7.38381366,11.2857605 7.8571521,11.2857605 L11.0952822,11.2857605 L11.0952822,7.8571521 C11.0952822,7.38381366 11.4790959,7 11.9524343,7 C12.4257728,7 12.8095864,7.38381366 12.8095864,7.8571521 L12.8095864,11.2857605 L16.2381948,11.2857605 C16.7115333,11.2857605 17.0953469,11.6695742 17.0953469,12.1429126"/>
</svg>
