<svg xmlns="http://www.w3.org/2000/svg" width="24" height="24" viewBox="0 0 24 24">
  <path fill="#000000" fill-rule="evenodd" d="M15.3686458,10.7688265 C15.3686458,9.92625441 15.0643837,9.16481892 14.5822452,8.54927322 C14.1679806,8.95105527 13.6694588,9.3224111 13.0898004,9.63135419 C12.9930607,9.68284471 12.9025622,9.73901618 12.8019217,9.78738606 C12.5514905,9.90675043 12.3002792,10.0011497 12.0514084,10.0877474 C11.7401248,10.1852673 11.407777,10.2578221 11.0606061,10.3085325 C10.7282582,10.3569024 10.3865484,10.3904492 10.0292354,10.3904492 C9.38248337,10.3904492 8.77239878,10.3069722 8.21926583,10.1564014 C8.18493882,10.3561222 8.15763324,10.5589636 8.15763324,10.7688265 C8.15763324,12.3907777 9.22801183,13.7513755 10.6892502,14.2147902 C11.0301798,14.3232323 11.3867127,14.3973475 11.7635296,14.3973475 C12.1395664,14.3973475 12.4960992,14.3232323 12.8370288,14.2147902 C14.2990474,13.7513755 15.3686458,12.3907777 15.3686458,10.7688265 L15.3686458,10.7688265 Z M16.8930771,10.7688265 C16.8930771,12.0943172 16.3875339,13.3012236 15.5660261,14.2147902 C14.8826066,14.9746654 13.9799622,15.5285785 12.9571734,15.7751088 C12.573335,15.8679478 12.1746736,15.9217788 11.7635296,15.9217788 C11.3516055,15.9217788 10.9529441,15.8679478 10.5698859,15.7751088 C9.54631683,15.5285785 8.6436725,14.9746654 7.96025294,14.2147902 C7.13874518,13.3012236 6.6339821,12.0943172 6.6339821,10.7688265 C6.6339821,10.3420793 6.69171389,9.93015521 6.7892338,9.53383428 C6.91874025,9.00566642 7.12938326,8.51104541 7.40711998,8.06167365 C7.72386466,8.32692781 8.20522296,8.55941529 8.81140675,8.69750349 C9.17964195,8.78098054 9.59000575,8.83013057 10.0292354,8.83013057 C10.6151351,8.83013057 11.1448633,8.73885193 11.5973557,8.5976431 C11.9788536,8.47905888 12.3073006,8.32614766 12.5507104,8.14983165 C12.8635542,7.96727437 13.13661,7.76755358 13.3706578,7.55925105 C13.8629383,7.12392215 14.1750021,6.66362815 14.2647204,6.27900961 C14.2748624,6.28447072 14.2857847,6.28837152 14.2959267,6.29383264 C14.7570009,6.5590868 15.1673647,6.90001642 15.5254578,7.28931592 C16.3688101,8.20678328 16.8930771,9.42383181 16.8930771,10.7688265 L16.8930771,10.7688265 Z M18.6024062,20.4755687 C17.7621746,19.5869672 15.7524842,18.5961649 14.0728012,18.0110454 L12.2573705,19.5549807 C11.9726123,19.7968301 11.5544469,19.7968301 11.2696888,19.5549807 L9.45425803,18.0110454 C7.77457502,18.5961649 5.76410446,19.5869672 4.92387288,20.4755687 L18.6024062,20.4755687 Z M20.5262791,21.2377843 C20.5262791,21.6582902 20.1853494,22 19.7648436,22 L3.76221565,22 C3.34092962,22 3,21.6582902 3,21.2377843 C3,18.5977252 8.3214667,16.7659111 9.38872464,16.4257617 C9.63915579,16.3454053 9.91377186,16.4007966 10.1142728,16.5708713 L11.7635296,17.9743779 L13.4127864,16.5708713 C13.6132873,16.4007966 13.8879034,16.3454053 14.1383346,16.4257617 C15.2048124,16.7659111 20.5262791,18.5977252 20.5262791,21.2377843 L20.5262791,21.2377843 Z M19.5846268,10.8015932 L19.5846268,11.8743122 C19.5846268,14.0252115 17.8347294,15.7751088 15.6838302,15.7751088 L12.9571734,15.7751088 C13.9799622,15.5285785 14.8826066,14.9746654 15.5660261,14.2147902 L15.6838302,14.2147902 C16.9742137,14.2147902 18.0243081,13.1646957 18.0243081,11.8743122 L18.0243081,10.8015932 C18.0243081,7.36031042 15.2243163,4.56031863 11.7830336,4.56031863 C8.2926008,4.56031863 5.49260902,7.36031042 5.49260902,10.8015932 L5.49260902,11.8743122 C5.49260902,13.1646957 6.54270346,14.2147902 7.83308697,14.2147902 L7.96025294,14.2147902 C8.6436725,14.9746654 9.54631683,15.5285785 10.5698859,15.7751088 L7.83308697,15.7751088 C5.68218773,15.7751088 3.93229038,14.0252115 3.93229038,11.8743122 L3.93229038,10.8015932 C3.93229038,6.49979469 7.43208508,3 11.7338836,3 C16.0848321,3 19.5846268,6.49979469 19.5846268,10.8015932 L19.5846268,10.8015932 Z"/>
</svg>
