<svg xmlns="http://www.w3.org/2000/svg" width="24" height="24" viewBox="0 0 24 24">
  <path fill="#000000" fill-rule="evenodd" d="M19.0001725,11.7619992 C19.0001725,7.77090858 15.7530899,4.52382595 11.7619992,4.52382595 C7.77090858,4.52382595 4.52382595,7.77090858 4.52382595,11.7619992 C4.52382595,15.7530899 7.77090858,19.0001725 11.7619992,19.0001725 C15.7530899,19.0001725 19.0001725,15.7530899 19.0001725,11.7619992 M20.5239985,11.7619992 C20.5239985,16.5932894 16.5932894,20.5239985 11.7619992,20.5239985 C6.93070905,20.5239985 3,16.5932894 3,11.7619992 C3,6.93070905 6.93070905,3 11.7619992,3 C16.5932894,3 20.5239985,6.93070905 20.5239985,11.7619992 M11.7124749,14.8134607 C11.4610436,14.8134607 11.2172315,14.916319 11.0381819,15.0934637 C10.8610371,15.2706085 10.7600837,15.5163254 10.7600837,15.7658519 C10.7600837,16.0172832 10.8610371,16.2630001 11.0381819,16.4401449 C11.2172315,16.6172897 11.4610436,16.7201479 11.7124749,16.7201479 C11.9639062,16.7201479 12.2096231,16.6172897 12.3867679,16.4401449 C12.5639126,16.2630001 12.6648661,16.0172832 12.6648661,15.7658519 C12.6648661,15.5163254 12.5639126,15.2706085 12.3867679,15.0934637 C12.2096231,14.916319 11.9639062,14.8134607 11.7124749,14.8134607 M14.6043156,7.85624283 C15.2066078,8.53548825 15.4913728,9.48349847 15.3744191,10.4574137 C15.1546072,12.2863858 13.817069,12.9380119 12.6269609,12.9380119 C12.5772461,12.9380119 12.5239122,12.9393453 12.5239122,12.94125 L12.5239122,13.4037312 C12.5239122,13.8244977 12.1827657,14.1656442 11.7619992,14.1656442 C11.3412328,14.1656442 11.0000863,13.8244977 11.0000863,13.4037312 L11.0000863,12.7898198 C11.0000863,12.162194 11.2618034,11.414186 12.6269609,11.414186 C13.3635403,11.414186 13.7582112,11.0311342 13.8490694,10.2756975 C13.8797364,10.0195043 13.9033557,9.36921153 13.4580175,8.86749183 C13.0961089,8.45948743 12.5088644,8.25262806 11.7124749,8.25262806 C9.98864678,8.25262806 9.93893196,9.36711627 9.93893196,9.49416526 C9.93893196,9.9149317 9.59778542,10.2560782 9.17701898,10.2560782 C8.75625254,10.2560782 8.415106,9.9149317 8.415106,9.49416526 C8.415106,8.72501411 9.00749334,6.72880211 11.7124749,6.72880211 C13.2707774,6.72880211 14.1479297,7.34195158 14.6043156,7.85624283"/>
</svg>
