<svg xmlns="http://www.w3.org/2000/svg" width="103" height="36" viewBox="0 0 103 36">
  <g fill="#FFFFFF" fill-rule="evenodd">
    <path d="M88.4551714.955371429L92.7730286.955371429C94.6171714 8.55994286 96.4647429 16.1756571 98.2917429 23.7446571L98.2917429.977228571 102.205886.977228571 102.205886 35.2638 97.9231714 35.2638C96.0726 27.7145143 94.2143143 20.1318 92.3436 12.4620857L92.3436 35.2719429 88.4551714 35.2719429 88.4551714.955371429zM47.9141571 5.29212857L47.9141571 15.7938429 49.2290143 15.7938429C50.9484429 15.7908429 51.3470143 15.4132714 51.3654429 13.7002714 51.3787286 11.9362714 51.3727286 10.1795571 51.3727286 8.41555714 51.3727286 5.21327143 51.1965857 5.04741429 47.9141571 5.29212857M47.8695857 20.1314143L47.8695857 31.0471286C48.3705857 31.0471286 48.8090143 31.0497 49.2393 31.0471286 51.1580143 31.0407 51.5167286 30.6862714 51.5261571 28.7427 51.5295857 26.9135571 51.5261571 25.0784143 51.5261571 23.2428429 51.5261571 20.0778429 51.2283 19.8104143 47.8695857 20.1314143M53.7525857 17.8702714C55.4904429 18.8559857 56.0655857 20.2852714 56.0694429 22.0004143 56.0711571 24.7381286 56.1067286 27.4698429 56.0484429 30.2028429 55.9738714 33.4509857 54.3778714 35.1597 51.1798714 35.3011286 48.6007286 35.4211286 46.0155857 35.3011286 43.3473 35.3011286L43.3473.913842857C44.0814429.913842857 44.8477286.896271429 45.6213.918128571 47.8605857.970842857 50.1251571.858985714 52.3348714 1.15941429 54.6693 1.47698571 55.7707286 2.91741429 55.8247286 5.25398571 55.8907286 8.28484286 55.8697286 11.3234143 55.8307286 14.3538429 55.8123 15.8221286 55.1377286 17.0054143 53.7525857 17.8702714M29.7417 18.2694C29.7417 14.3402571 29.7519857 10.4106857 29.7331286 6.48068571 29.7249857 5.01411429 28.8292714 4.25511429 27.5212714 4.5684 26.3911286 4.84182857 26.1485571 5.73068571 26.1485571 6.7314 26.1421286 14.3244 26.1472714 21.9238286 26.1485571 29.5185429 26.1485571 29.8134 26.1939857 30.1202571 26.2655571 30.4022571 26.5724143 31.5842571 27.7878429 32.2232571 28.7649857 31.5426857 29.2677 31.1904 29.6838429 30.3525429 29.6979857 29.7178286 29.7798429 25.9056857 29.7417 22.0854 29.7417 18.2694L29.7417 18.2694zM21.6228429 18.1168286C21.6228429 14.2206857 21.6082714 10.3279714 21.6258429 6.43397143 21.6425571 2.5524 23.4489857.652542857 27.3211286.4494 28.1054143.408685714 28.8974143.4254 29.6752714.517971429 32.3984143.843257143 34.1354143 2.56311429 34.2382714 5.3334 34.3822714 9.25782857 34.3638429 26.2584 34.2382714 30.8171143 34.1594143 33.5505429 32.7759857 35.1598286 30.0798429 35.5708286 28.5327 35.8052571 26.8578429 35.7594 25.3261286 35.4422571 22.9514143 34.9609714 21.6635571 33.0324 21.6374143 30.3585429 21.6022714 26.2789714 21.6288429 22.1976857 21.6288429 18.1168286L21.6228429 18.1168286zM12.5388 10.6700143L8.12537143 10.6700143C8.12537143 9.22444286 8.15237143 7.78401429 8.11594286 6.34487143 8.08465714 5.0223 7.2678 4.36315714 5.97951429 4.54958571 4.96937143 4.69401429 4.56822857 5.42301429 4.56522857 6.29301429 4.53608571 14.1988714 4.53308571 22.1000143 4.56951429 29.9998714 4.57765714 31.1904429 5.28051429 31.7587286 6.33522857 31.7548714 7.35265714 31.7484429 8.06108571 31.2153 8.08165714 30.2325857 8.15108571 26.8743 8.10565714 23.4418714 8.10565714 20.0158714 7.50522857 19.9927286 6.9948 20.0450143 6.39951429 20.0158714L6.39951429 15.8553 12.5388 15.8553C12.5388 16.4184429 12.6798 26.2871571 12.5388 30.6988714 12.4410857 33.7078714 10.8330857 35.4195857 7.80265714 35.7363 6.6288 35.8588714 5.40094286 35.7860143 4.23737143 35.5790143 1.57637143 35.0895857.0648 33.3868714.0459428571 30.6988714-.0153428571 22.3053-.0153428571 13.9181571.0459428571 5.52758571.0695142857 2.58887143 2.05765714.659014286 5.01137143.509442857 6.2298.448157143 7.48722857.481585714 8.68508571.686871429 10.8900857 1.0683 12.2422286 2.53787143 12.4890857 4.69401429 12.7179429 6.64444286 12.5388 8.63944286 12.5388 10.6700143M72.3046286 7.60157143C72.2592 7.60157143 72.2090571 7.59942857 72.1572 7.59942857 71.7033429 13.0461429 71.2409143 18.4941429 70.7840571 23.9704286L73.7129143 23.9704286C73.2380571 18.456 72.7734857 13.0294286 72.3046286 7.60157143M79.4476286 35.2842857L74.8430571 35.2842857C74.6232 32.9824286 74.3994857 30.6968571 74.1753429 28.3221429L70.3614857 28.3221429C70.1390571 30.6012857 69.9110571 32.8932857 69.6813429 35.2637143L65.0913429 35.2637143C66.5013429 23.8504286 67.9203429 12.4538571 69.3432.984428571L75.1790571.984428571C76.5980571 12.408 78.0140571 23.811 79.4476286 35.2842857"/>
  </g>
</svg>
