<svg xmlns="http://www.w3.org/2000/svg" width="137" height="48" viewBox="0 0 137 48">
  <g fill="#231F20" fill-rule="evenodd">
    <path d="M117.940229 1.27382857L123.697371 1.27382857C126.156229 11.4132571 128.619657 21.5675429 131.055657 31.6595429L131.055657 1.30297143 136.274514 1.30297143 136.274514 47.0184 130.564229 47.0184C128.0968 36.9526857 125.619086 26.8424 123.1248 16.6161143L123.1248 47.0292571 117.940229 47.0292571 117.940229 1.27382857zM63.8855429 7.05617143L63.8855429 21.0584571 65.6386857 21.0584571C67.9312571 21.0544571 68.4626857 20.5510286 68.4872571 18.2670286 68.5049714 15.9150286 68.4969714 13.5727429 68.4969714 11.2207429 68.4969714 6.95102857 68.2621143 6.72988571 63.8855429 7.05617143M63.8261143 26.8418857L63.8261143 41.3961714C64.4941143 41.3961714 65.0786857 41.3996 65.6524 41.3961714 68.2106857 41.3876 68.6889714 40.9150286 68.7015429 38.3236 68.7061143 35.8847429 68.7015429 33.4378857 68.7015429 30.9904571 68.7015429 26.7704571 68.3044 26.4138857 63.8261143 26.8418857M71.6701143 23.8270286C73.9872571 25.1413143 74.7541143 27.0470286 74.7592571 29.3338857 74.7615429 32.9841714 74.8089714 36.6264571 74.7312571 40.2704571 74.6318286 44.6013143 72.5038286 46.8796 68.2398286 47.0681714 64.8009714 47.2281714 61.3541143 47.0681714 57.7964 47.0681714L57.7964 1.21845714C58.7752571 1.21845714 59.7969714 1.19502857 60.8284 1.22417143 63.8141143 1.29445714 66.8335429 1.14531429 69.7798286 1.54588571 72.8924 1.96931429 74.3609714 3.88988571 74.4329714 7.00531429 74.5209714 11.0464571 74.4929714 15.0978857 74.4409714 19.1384571 74.4164 21.0961714 73.5169714 22.6738857 71.6701143 23.8270286M39.6556 24.3592C39.6556 19.1203429 39.6693143 13.8809143 39.6441714 8.64091429 39.6333143 6.68548571 38.4390286 5.67348571 36.6950286 6.0912 35.1881714 6.45577143 34.8647429 7.64091429 34.8647429 8.9752 34.8561714 19.0992 34.8630286 29.2317714 34.8647429 39.3580571 34.8647429 39.7512 34.9253143 40.1603429 35.0207429 40.5363429 35.4298857 42.1123429 37.0504571 42.9643429 38.3533143 42.0569143 39.0236 41.5872 39.5784571 40.4700571 39.5973143 39.6237714 39.7064571 34.5409143 39.6556 29.4472 39.6556 24.3592L39.6556 24.3592zM28.8304571 24.1557714C28.8304571 18.9609143 28.8110286 13.7706286 28.8344571 8.57862857 28.8567429 3.4032 31.2653143.870057143 36.4281714.5992 37.4738857.544914286 38.5298857.5672 39.5670286.690628571 43.1978857 1.12434286 45.5138857 3.41748571 45.6510286 7.1112 45.8430286 12.3437714 45.8184571 35.0112 45.6510286 41.0894857 45.5458857 44.7340571 43.7013143 46.8797714 40.1064571 47.4277714 38.0436 47.7403429 35.8104571 47.6792 33.7681714 47.2563429 30.6018857 46.6146286 28.8847429 44.0432 28.8498857 40.4780571 28.8030286 35.0386286 28.8384571 29.5969143 28.8384571 24.1557714L28.8304571 24.1557714zM16.7184 14.2266857L10.8338286 14.2266857C10.8338286 12.2992571 10.8698286 10.3786857 10.8212571 8.45982857 10.7795429 6.6964 9.6904 5.81754286 7.97268571 6.06611429 6.62582857 6.25868571 6.09097143 7.23068571 6.08697143 8.39068571 6.04811429 18.9318286 6.04411429 29.4666857 6.09268571 39.9998286 6.10354286 41.5872571 7.04068571 42.3449714 8.44697143 42.3398286 9.80354286 42.3312571 10.7481143 41.6204 10.7755429 40.3101143 10.8681143 35.8324 10.8075429 31.2558286 10.8075429 26.6878286 10.0069714 26.6569714 9.3264 26.7266857 8.53268571 26.6878286L8.53268571 21.1404 16.7184 21.1404C16.7184 21.8912571 16.9064 35.0495429 16.7184 40.9318286 16.5881143 44.9438286 14.4441143 47.2261143 10.4035429 47.6484 8.8384 47.8118286 7.20125714 47.7146857 5.64982857 47.4386857 2.10182857 46.7861143.0864 44.5158286.0612571429 40.9318286-.0204571429 29.7404-.0204571429 18.5575429.0612571429 7.37011429.0926857143 3.45182857 2.74354286.878685714 6.68182857.679257143 8.3064.597542857 9.98297143.642114286 11.5801143.915828571 14.5201143 1.4244 16.3229714 3.38382857 16.6521143 6.25868571 16.9572571 8.85925714 16.7184 11.5192571 16.7184 14.2266857M96.4061714 10.1354286C96.3456 10.1354286 96.2787429 10.1325714 96.2096 10.1325714 95.6044571 17.3948571 94.9878857 24.6588571 94.3787429 31.9605714L98.2838857 31.9605714C97.6507429 24.608 97.0313143 17.3725714 96.4061714 10.1354286M105.930171 47.0457143L99.7907429 47.0457143C99.4976 43.9765714 99.1993143 40.9291429 98.9004571 37.7628571L93.8153143 37.7628571C93.5187429 40.8017143 93.2147429 43.8577143 92.9084571 47.0182857L86.7884571 47.0182857C88.6684571 31.8005714 90.5604571 16.6051429 92.4576 1.31257143L100.238743 1.31257143C102.130743 16.544 104.018743 31.748 105.930171 47.0457143"/>
  </g>
</svg>
