<svg version="1" xmlns="http://www.w3.org/2000/svg" width="346.667" height="346.667" viewBox="0 0 260.000000 260.000000"><path d="M10.1 87.3c-1.9.6-4.4 2.5-5.5 4-2 2.7-2.1 4.1-2.4 37.7-.3 38.8-.1 40.5 5.8 43.5 8.3 4.3 20.5 2.3 23.7-3.8 1.4-2.7 1.7-6.6 1.8-23.5.1-22.7 1-20.4-8-20.4-7.9 0-7.5-.2-7.5 5.2 0 4.3.3 5 2 5 1.1 0 2 .6 2.1 1.2.1 1.8.1 19.6 0 23.5-.1 4.2-3.2 6.1-6.4 4-2.2-1.4-2.2-1.6-2.2-33.2 0-30.1.1-31.7 1.9-33.1 2.5-1.8 3.2-1.8 5.4.3 1.2 1.3 1.7 3.3 1.6 7.6 0 6.4.9 7.2 7.7 6.5l3.4-.3v-7.9c0-8.6-1.3-12.6-5.1-15.1-3.2-2.1-14-2.8-18.3-1.2zM63.4 87.9c-6.7 3.1-6.9 3.9-6.9 42.6 0 37.4.3 39.3 5.8 42.2 3.5 1.8 14.8 2 18.9.4 1.6-.6 3.7-2.5 4.8-4.3 1.9-3.1 2-5.1 2-38.3 0-32.9-.1-35.2-2-38.2-2.5-4.2-5.1-5.5-12.4-5.9-4.4-.3-7.2.1-10.2 1.5zm11.4 9.9c1.8 1.8 1.9 4 1.8 33.1-.1 29.7-.2 31.3-2 32.7-2.9 2.1-4.4 1.7-5.9-1.4-1-2.1-1.3-9.8-1.2-33.1.1-28.4.3-30.5 2-31.7 2.5-1.8 3.1-1.8 5.3.4zM111 89.8c-.1 3.6-.1 68.8 0 77.4v6.6l11.9-.2c18.4-.4 19.4-1.5 19.8-22 .2-14.2-.1-16.1-4-20.4-1.1-1.2-1.5-2.2-.9-2.2s1.8-1.3 2.7-3c1.2-2.2 1.5-6.4 1.6-17 0-20.2-.7-21-19.1-21.5l-12-.4v2.7zm19 10.1c1.2 2.3 1.4 21 .2 22.8-.4.7-2.2 1.4-3.9 1.7-4.1.8-4.3.1-4.1-14.7l.2-11.7h3.3c2.2 0 3.6.6 4.3 1.9zm.2 36.9c1.6 1.6 1.4 22.8-.2 24.7-.7.8-2.8 1.5-4.6 1.5H122v-13.3c0-7.4.3-13.7.6-14 .9-.9 6.4-.1 7.6 1.1zM175.9 88.4c0 .6-.2 1.8-.3 2.6-.2.8-.6 4-.9 7-.4 3-1.3 10.9-2.2 17.5-.8 6.6-1.7 14-2 16.5-.3 2.5-.8 5.6-1 7-.2 1.4-.6 5-.9 8-.4 3-.8 7.1-1.1 9-.2 1.9-.7 5.7-1 8.5-.4 2.7-.8 5.8-1.1 6.7-.3 1.1 0 1.9.8 1.9 4 .5 10 .3 10.3-.2.2-.3.7-3.4 1.1-7 .4-3.5.8-7.1.9-7.9.1-1 1.6-1.6 4.8-1.8 2.6-.2 4.7-.2 4.8 0 0 .2.2 3 .5 6.3s.7 6.9.9 8c.2 1.1.4 2.2.4 2.5.1.3 2.6.5 5.7.6l5.6.1-.5-5.6c-.4-3.1-1.3-11-2.2-17.6-.8-6.6-1.7-14-2.1-16.5-.3-2.5-.7-5.9-.9-7.5-.3-1.7-.7-5-.9-7.5-.3-2.5-.7-6.1-1-8-.6-3.6-1.3-10-2.1-17.9-.3-2.5-.7-4.7-1-5-1.1-1-14.5-.8-14.6.3zm8.5 27.1c.4 5.5.9 11.8 1.1 14 .3 2.2.7 6.6 1 9.7l.6 5.8H179.8l.7-8.8c1-14 1.6-21.6 2-23.7.1-1.1.3-3.3.4-4.9.2-5.5.9-2.1 1.5 7.9zM225.1 87.8c-.8.3-1.1 13.6-1.1 42.8v42.5l4.8-.3 4.7-.3.1-26.3c0-14.4.4-26.5.7-26.9.4-.3.7.1.7 1s2.5 11.8 5.6 24.4c6 24.2 6.2 25.1 6.3 27 .1.9 1.9 1.3 5.6 1.3h5.5l-.2-42.7-.3-42.8-3.5.1c-1.9.1-3.9.2-4.5.3-.6.1-1 9.6-.9 26.6 0 14.6-.3 26.2-.6 25.8-.5-.6-5.6-20.8-7.6-29.8-1.3-6.1-5.5-22-6-22.4-.6-.6-7.7-.8-9.3-.3z"/></svg>